<?xml version="1.0" standalone="no"?>
<!DOCTYPE svg PUBLIC "-//W3C//DTD SVG 20010904//EN"
 "http://www.w3.org/TR/2001/REC-SVG-20010904/DTD/svg10.dtd">
<svg version="1.0" xmlns="http://www.w3.org/2000/svg"
 width="700.000000pt" height="700.000000pt" viewBox="0 0 700.000000 700.000000"
 preserveAspectRatio="xMidYMid meet">
<metadata>
Created by potrace 1.11, written by Peter Selinger 2001-2013
</metadata>
<g transform="translate(0.000000,700.000000) scale(0.100000,-0.100000)"
fill="#000000" stroke="none">
<path d="M3368 6254 c-2 -1 -41 -4 -88 -8 -47 -3 -101 -7 -120 -10 -129 -18
-166 -24 -190 -31 -8 -2 -31 -7 -50 -10 -103 -17 -361 -97 -458 -141 -29 -13
-54 -24 -57 -24 -2 0 -41 -17 -87 -39 -355 -165 -713 -448 -964 -763 -33 -40
-62 -75 -65 -78 -9 -8 -155 -232 -176 -270 -11 -19 -31 -55 -45 -80 -21 -39
-60 -123 -128 -275 -61 -138 -142 -438 -166 -612 -3 -26 -8 -57 -10 -68 -9
-47 -18 -230 -18 -360 0 -128 11 -322 19 -335 2 -3 6 -27 9 -55 3 -27 8 -61
11 -75 3 -14 8 -41 11 -60 11 -67 63 -256 97 -355 142 -410 380 -786 683
-1077 119 -115 146 -138 271 -231 249 -188 524 -330 823 -425 135 -43 312 -84
420 -98 25 -3 56 -7 70 -10 141 -24 495 -23 685 1 725 92 1395 476 1841 1056
370 481 568 1063 568 1669 0 123 -10 305 -18 346 -2 12 -7 45 -11 75 -33 269
-154 629 -307 912 -230 424 -594 801 -1013 1049 -268 158 -617 291 -875 333
-19 3 -42 8 -50 10 -8 2 -39 7 -69 10 -30 4 -62 8 -72 10 -68 13 -461 29 -471
19z m-179 -659 c138 -45 149 -131 45 -340 -80 -160 -85 -183 -70 -275 16 -104
92 -135 235 -99 107 27 167 58 406 205 236 146 293 175 383 199 154 39 264 8
315 -90 39 -76 17 -184 -50 -250 -17 -17 -65 -63 -107 -104 -92 -89 -130 -147
-151 -226 -24 -95 -4 -159 60 -189 68 -32 133 -18 395 89 134 54 213 75 291
75 146 0 259 -84 245 -183 -12 -82 -34 -121 -117 -207 -113 -117 -175 -273
-134 -336 34 -52 159 -88 213 -60 22 11 32 12 41 3 49 -49 -84 -83 -187 -47
-94 33 -134 77 -134 148 0 97 67 233 159 324 93 91 126 175 95 235 -21 39 -98
67 -182 67 -87 0 -154 -18 -299 -80 -169 -73 -241 -95 -303 -95 -163 0 -247
130 -189 295 27 78 71 137 187 251 106 103 134 147 134 208 0 73 -74 137 -159
137 -79 0 -227 -49 -301 -100 -14 -10 -41 -27 -60 -38 -19 -10 -89 -53 -156
-94 -250 -155 -341 -194 -467 -203 -131 -8 -211 59 -222 186 -6 77 9 130 77
266 69 138 84 209 53 243 -27 30 -112 54 -190 52 -99 -1 -249 -49 -407 -128
-67 -34 -276 -160 -288 -174 -3 -3 -17 -13 -32 -23 -56 -36 -195 -152 -264
-221 -241 -243 -367 -547 -366 -886 0 -102 5 -156 26 -285 4 -27 40 -177 51
-215 22 -76 23 -74 25 35 1 61 3 121 5 135 22 196 90 363 194 482 90 102 285
215 410 238 142 25 288 7 404 -51 87 -44 198 -159 262 -274 l51 -89 73 -2 c73
-2 150 -11 182 -20 11 -3 15 -12 12 -25 -5 -18 -11 -20 -52 -14 -114 15 -181
15 -187 1 -3 -7 5 -47 17 -87 13 -41 22 -77 21 -81 -1 -5 1 -8 5 -9 5 0 27 -2
50 -4 57 -4 83 -14 83 -30 0 -15 -35 -28 -61 -25 -57 8 -59 5 -52 -77 12 -146
4 -497 -13 -524 -2 -3 -6 -26 -9 -50 -10 -77 -46 -202 -81 -276 -69 -146 -192
-239 -326 -247 -138 -8 -308 47 -467 152 -133 87 -297 256 -400 412 -33 49
-42 58 -36 35 4 -16 9 -39 11 -50 11 -59 18 -87 40 -164 90 -313 211 -630 389
-1015 53 -115 94 -215 91 -223 -9 -23 -39 -11 -55 22 -132 269 -300 658 -325
750 -2 6 -8 21 -13 35 -6 14 -38 106 -71 205 -67 200 -112 370 -128 490 -8 58
-30 136 -74 255 -40 110 -74 233 -85 310 -4 25 -11 70 -15 100 -9 58 -5 315 4
365 56 285 125 443 277 630 158 195 444 413 714 545 246 120 413 152 554 105z
m2339 -1807 c3 -22 -2 -28 -32 -38 -20 -6 -36 -16 -36 -20 0 -5 38 -21 85 -36
47 -15 83 -29 80 -32 -3 -3 -41 -7 -85 -7 -59 -2 -80 1 -80 11 0 7 10 11 25 9
14 -1 25 2 25 6 0 5 -8 9 -17 9 -25 1 -66 35 -61 50 2 8 20 19 39 25 25 9 34
18 33 34 -1 30 20 20 24 -11z m65 -191 c20 -16 37 -35 37 -42 0 -18 -31 -35
-64 -35 -30 0 -32 -7 -11 -34 8 -11 15 -33 15 -49 0 -22 -6 -31 -29 -40 l-28
-10 28 -46 c16 -25 29 -53 29 -63 0 -47 -73 -22 -115 39 -25 37 -34 93 -15 93
6 0 9 6 8 13 -3 12 4 12 54 -3 39 -12 52 8 34 52 -17 39 -32 54 -60 59 -11 2
-21 9 -23 15 -3 8 11 9 42 4 85 -13 125 0 89 28 -11 10 -36 29 -55 45 l-34 27
30 -12 c17 -7 47 -25 68 -41z m-173 -42 c0 -8 -4 -15 -10 -15 -5 0 -10 7 -10
15 0 8 5 15 10 15 6 0 10 -7 10 -15z m-173 -296 c67 -27 126 -49 131 -49 4 0
18 21 31 46 27 57 50 48 26 -9 -8 -20 -15 -40 -15 -45 0 -9 171 -64 255 -82
28 -5 60 -12 73 -15 12 -3 22 -12 22 -21 0 -13 -8 -15 -42 -9 -52 8 -160 37
-246 65 -35 11 -67 20 -71 20 -9 0 -28 -104 -37 -196 l-5 -61 88 -27 c166 -51
197 -62 201 -74 6 -20 -35 -14 -161 23 -66 20 -121 34 -124 31 -2 -2 -5 -28
-6 -57 -1 -32 -7 -54 -15 -57 -9 -3 -12 8 -11 35 4 101 8 95 -94 131 -131 48
-277 113 -277 123 0 15 21 11 100 -20 41 -16 119 -45 173 -64 95 -34 97 -34
98 -13 0 23 5 66 15 141 15 112 25 100 -124 160 -74 30 -144 61 -158 70 -37
24 -28 37 14 19 20 -9 92 -38 159 -65z m26 -716 c24 -81 -7 -104 -84 -61 -21
12 -42 18 -46 14 -8 -8 20 -59 59 -104 27 -32 35 -52 21 -52 -5 0 -30 16 -58
34 -27 19 -53 32 -56 28 -4 -4 -10 -24 -13 -44 -5 -30 -3 -39 12 -47 21 -11
48 -82 39 -105 -4 -9 -13 -16 -22 -16 -19 0 -55 57 -55 89 0 21 -3 23 -36 16
-27 -5 -41 -2 -55 11 -21 19 -26 73 -7 92 17 17 38 15 38 -3 0 -8 -6 -14 -12
-12 -18 3 -22 -47 -5 -61 8 -7 27 -9 44 -6 26 5 31 12 43 57 14 57 22 44 -80
129 -79 65 -37 49 59 -22 52 -39 95 -70 97 -70 1 0 -7 17 -19 39 -16 29 -19
44 -12 60 l10 22 50 -26 c80 -40 92 -33 71 39 -8 25 -10 46 -5 46 4 0 15 -21
22 -47z m-643 -100 c0 -5 -28 -23 -63 -40 -84 -44 -201 -122 -261 -176 l-49
-43 38 -89 c21 -49 48 -106 60 -127 l21 -37 35 29 c41 36 140 90 164 90 26 0
12 -23 -21 -33 -26 -9 -98 -53 -149 -92 -19 -15 -19 -17 20 -92 22 -43 70
-128 107 -190 40 -68 62 -115 56 -119 -6 -4 -13 -3 -17 2 -35 50 -77 120 -137
233 l-72 133 -28 -42 c-16 -23 -30 -38 -32 -32 -3 10 15 49 39 82 9 12 0 40
-40 128 -28 61 -51 116 -51 122 0 20 -18 9 -63 -40 -25 -27 -48 -46 -51 -41
-5 7 37 63 82 110 7 7 10 21 6 30 -13 33 -16 51 -7 51 5 0 13 -11 19 -25 l9
-25 65 51 c156 123 320 216 320 182z m247 -179 c-9 -9 -28 6 -21 18 4 6 10 6
17 -1 6 -6 8 -13 4 -17z m147 -38 c10 -30 16 -65 14 -78 -4 -28 -39 -36 -58
-13 -21 26 -28 17 -17 -25 13 -49 0 -94 -29 -98 -13 -2 -37 15 -71 49 -28 28
-56 49 -61 45 -6 -4 -3 -32 8 -76 21 -81 12 -96 -31 -54 -30 29 -30 29 -21 4
12 -34 6 -101 -9 -111 -18 -11 -42 4 -77 49 -29 36 -52 92 -38 92 3 0 17 -17
30 -37 29 -46 66 -86 73 -79 3 2 5 31 4 62 0 42 -6 66 -21 86 -23 32 -25 38
-7 38 6 -1 25 -17 40 -38 l28 -37 -7 52 c-7 55 4 83 33 83 8 0 39 -23 69 -52
45 -42 57 -49 65 -38 15 23 -1 111 -27 149 -35 52 -20 51 34 -2 44 -43 72 -59
72 -39 0 4 -6 33 -14 65 -17 72 -4 75 18 3z m-2198 -130 l-14 -34 51 -7 c29
-5 54 -9 57 -10 3 -1 25 -7 50 -14 114 -31 159 -46 215 -74 86 -43 50 -45 -53
-4 -103 41 -303 93 -326 84 -9 -4 -38 -51 -65 -107 -69 -139 -68 -137 -29
-145 66 -13 134 -38 164 -61 l31 -23 16 34 c21 45 53 63 62 35 12 -38 -47
-162 -89 -187 -19 -12 -39 -122 -25 -139 15 -18 33 -7 114 68 76 72 113 98
129 92 71 -24 68 -21 51 -54 -22 -42 -6 -74 30 -60 52 20 75 42 75 71 0 18 5
29 14 29 10 0 14 -15 15 -53 0 -57 14 -107 30 -107 5 0 17 34 26 76 9 41 18
74 21 72 6 -6 12 -49 13 -86 1 -33 24 -53 41 -36 5 5 12 34 16 64 3 30 8 56 9
58 2 2 9 -9 17 -25 9 -19 21 -28 37 -28 22 0 23 4 27 87 5 99 16 138 39 138
38 0 39 -98 1 -187 -19 -46 -21 -63 -15 -105 10 -65 22 -77 49 -53 28 25 76
117 84 160 12 63 76 102 91 55 8 -24 -30 -90 -51 -90 -17 0 -18 -16 -1 -27 45
-28 126 53 111 112 -5 19 1 32 26 56 29 29 33 31 48 16 9 -9 12 -20 8 -24 -4
-4 -11 -2 -15 5 -6 9 -12 7 -26 -8 -26 -29 -27 -48 -2 -65 31 -21 43 -19 87
17 31 24 38 36 34 53 -7 27 40 87 61 78 8 -3 15 -11 15 -19 0 -7 -6 -11 -14
-8 -21 8 -47 -35 -35 -57 19 -37 56 -34 100 6 52 47 64 37 15 -14 -31 -32 -35
-41 -28 -62 16 -41 -8 -113 -34 -107 -31 6 -38 32 -22 81 15 45 14 45 -9 56
-21 10 -30 7 -65 -20 -32 -26 -39 -37 -35 -57 6 -30 -11 -94 -27 -104 -38 -25
-56 19 -31 78 15 36 15 39 -1 51 -26 19 -32 16 -48 -20 -28 -67 -108 -101
-139 -58 -12 19 -15 16 -41 -38 -30 -64 -66 -92 -94 -75 -15 10 -23 34 -38
113 -3 13 -7 21 -11 18 -3 -3 -16 -2 -29 3 -21 8 -24 6 -34 -29 -5 -21 -17
-44 -25 -51 -18 -15 -55 -4 -55 18 -1 15 -3 14 -16 -3 -8 -11 -19 -26 -23 -34
-6 -10 -13 -11 -29 -2 -20 11 -33 36 -38 76 -1 11 -3 21 -3 22 -1 1 -17 -9
-37 -22 -20 -14 -45 -25 -55 -25 -21 0 -49 26 -49 46 0 20 -4 18 -52 -16 -46
-34 -88 -40 -88 -13 0 13 -10 7 -36 -20 -20 -20 -40 -37 -44 -37 -5 0 -15 -3
-23 -6 -21 -8 -47 23 -47 55 0 24 36 159 54 201 10 24 -73 64 -182 89 l-44 9
-15 -36 c-8 -21 -23 -55 -33 -77 -10 -22 -39 -98 -65 -168 -33 -88 -51 -125
-58 -118 -14 14 9 86 83 263 l57 138 -51 0 c-39 1 -47 3 -34 11 10 5 36 11 58
12 l40 3 55 113 c31 63 57 119 58 125 2 12 -7 13 -85 15 -82 2 -54 21 30 21
75 0 79 1 100 30 29 39 36 38 18 -4z m1794 -62 c0 -8 -4 -12 -10 -9 -5 3 -10
10 -10 16 0 5 5 9 10 9 6 0 10 -7 10 -16z"/>
<path d="M2385 4464 c-64 -16 -205 -88 -270 -138 -128 -99 -212 -242 -252
-429 -14 -62 -18 -129 -18 -278 l0 -195 33 -65 c34 -65 110 -183 147 -228 184
-226 366 -360 563 -416 112 -33 230 -32 297 0 124 60 219 241 251 475 3 25 8
47 9 50 15 25 22 366 10 477 -4 32 -7 64 -8 71 -1 27 -36 11 -47 -23 -20 -59
-79 -83 -126 -50 -19 12 -24 12 -40 0 -27 -20 -54 -19 -54 3 0 40 112 110 205
128 20 3 39 12 41 19 3 7 -7 52 -22 100 l-27 87 -41 -6 c-92 -15 -207 -111
-254 -214 -57 -124 -20 -337 92 -517 30 -49 23 -67 -38 -96 -47 -22 -86 -54
-86 -70 0 -6 16 -25 35 -43 41 -39 46 -75 14 -107 -19 -19 -20 -22 -4 -39 28
-31 30 -91 5 -117 -22 -24 -60 -31 -60 -12 0 6 9 22 19 36 23 28 19 45 -15 68
-32 21 -30 39 6 72 34 30 38 51 13 60 -30 10 -63 46 -63 67 0 28 33 80 65 102
74 53 71 42 30 109 -20 33 -38 71 -42 85 -3 14 -9 30 -13 35 -4 6 -10 28 -14
50 -4 22 -10 56 -14 75 -4 19 -7 73 -6 120 0 77 4 92 37 161 56 118 166 204
285 225 25 5 26 14 2 57 -88 158 -180 246 -315 297 -76 29 -240 36 -330 14z"/>
<path d="M3016 3771 l-39 -17 33 -14 c30 -12 34 -12 46 5 15 20 19 45 7 44 -5
0 -26 -8 -47 -18z"/>
<path d="M5450 3388 c0 -33 79 -122 95 -107 5 6 -78 119 -87 119 -5 0 -8 -6
-8 -12z"/>
<path d="M5090 2282 c0 -15 25 -62 33 -62 9 0 9 1 -4 39 -10 28 -29 43 -29 23z"/>
<path d="M2952 1748 c-10 -13 -52 -113 -52 -126 0 -12 46 62 60 96 14 35 10
51 -8 30z"/>
<path d="M3566 1698 c-3 -18 -7 -55 -9 -83 l-4 -50 15 35 c16 39 23 118 11
126 -4 2 -10 -10 -13 -28z"/>
<path d="M3727 1588 c-11 -23 -13 -34 -5 -37 12 -4 47 37 48 57 0 24 -28 11
-43 -20z"/>
<path d="M4083 1560 c-11 -39 -6 -62 9 -36 5 9 8 29 6 44 -4 26 -4 26 -15 -8z"/>
<path d="M3077 1561 c-32 -21 -62 -59 -53 -68 5 -5 116 74 116 83 0 11 -38 2
-63 -15z"/>
<path d="M3912 1500 c-6 -16 -7 -32 -2 -35 10 -6 15 1 24 38 9 37 -9 35 -22
-3z"/>
</g>
</svg>
