<svg id="Layer_1" data-name="Layer 1" xmlns="http://www.w3.org/2000/svg" viewBox="0 0 1417.32 1417.32"><defs><style>.cls-1{fill:#f4dad2;}</style></defs><path class="cls-1" d="M199.43,729.88c-.22-37.59,2.18-74.88,12.75-111.23,17.42-60,51.25-107.24,106.09-138.62,25.73-14.72,51.92-27.65,81.8-31.71q121-16.44,188.5,85.2c8.1,12.23,25.71,46.72,25.71,46.72,24-1.16,53.79,1.43,77,5.14,4.85.77,8.73,3,8.18,8.36s-5,6.81-9.81,6.25c-8.69-1-36.59-6.2-68.9-4.31,6.08,21,11.24,38.77,17.19,59.3,12.08-.33,18.17-.61,33.47,2.43,4.42.88,8.3,3.89,8.09,6.92-.19,2.84-1.53,4.81-5.27,6.58s-19.51.06-32.77,1.65c.23,3.94.28,6.17.51,8.37,8.51,79.11,5.67,157.59-13.62,235-6.29,25.25-15.77,49.28-30.63,70.95-29.7,43.3-70.55,59.86-122,51.76C421.23,1030.13,375,1004.88,333.3,970A488.8,488.8,0,0,1,234,857.58a118.4,118.4,0,0,1-9.21-17c1.16,6,4.2,22.3,5.47,28.29,13.51,63.72,35.87,124.65,57.37,185.93,27.5,78.37,63.25,153.06,98.28,228.12,2.62,5.6,5,11.3,7.41,17a6.87,6.87,0,0,1-2,8.11c-5.77,4.46-10.35,2.28-13.28-2.67-1.21-2-2.07-4.3-3.08-6.46-13.51-28.86-26.8-57.82-40.57-86.55-33-68.74-58.26-140.48-83.69-212.18-17.75-50-32.21-101-41.67-153.29-.53-3-1.26-7.88-1.56-10.89-2.23-22.58-9-43.71-17.68-64.84C163.19,706.29,149,638.67,150.61,568.34c2.47-105.9,38.57-198.54,111.51-275.93,44.61-47.34,97.33-84.41,152.24-118.65a528.59,528.59,0,0,1,127.81-58.29c26-7.81,52.23-11.31,79-6.07a125.13,125.13,0,0,1,30.34,10.22c16.7,8.12,24.23,22.29,22.88,41-1,14.16-5.28,27.35-11.77,39.83-7,13.43-14.44,26.62-21.3,40.1-7.45,14.65-13.77,29.89-13.76,46.58a102.09,102.09,0,0,0,3.73,28.18c4.24,14.64,15.18,22.87,30,26,11.55,2.43,23,1.41,34.35-1.17,30.19-6.89,58.11-19.33,84.36-35.54,32.18-19.88,64-40.29,96.28-60.07,25.89-15.88,52.86-29.5,82.92-35.81,15.68-3.29,31.34-5,47.35-1.61,36.34,7.73,57.13,42.68,46.11,78.18a83.32,83.32,0,0,1-22,35.13c-12.26,11.95-25.11,23.29-37.47,35.15-16.25,15.6-30.07,33.16-38,54.43-3.57,9.55-6.22,19.93-6.67,30-1.19,26.52,15.28,44,41.86,44.69,10.17.25,21-.78,30.5-4.09,24.78-8.6,49.15-18.43,73.41-28.44,20.63-8.52,41.15-17.09,63.25-21.17,22.27-4.11,44.37-4.9,65.89,3.45a106.16,106.16,0,0,1,19.13,9.64c16,10.32,22,25.48,20,44.17-2,19-10.46,34.93-23.39,48.64-4.92,5.22-10,10.35-15.22,15.2-21.8,20.12-34.46,45.62-42.75,73.48-6.8,22.88-.68,35.47,21.45,44.62a124.65,124.65,0,0,0,26.25,7.69c8,1.38,16.45,2.28,23.53-4.61,4.16-4,9.36-3,12.43,1.09s2.6,9.53-2.14,12.5a39.89,39.89,0,0,1-14.22,5.64c-25.74,4.33-49.12-2.62-70-17.41-13.88-9.87-18.89-24.76-15.77-41.29,6.25-33.17,20.09-62.82,43.62-87.47,7.43-7.77,15.27-15.16,22.59-23a64.15,64.15,0,0,0,16.82-35c2.17-14.77-2.25-24.54-15.14-32.18-17.49-10.38-36.57-12.84-56.48-10.73-22.81,2.42-44.21,9.65-65.19,18.59-21.59,9.2-43.19,18.46-65.07,26.94-17.42,6.76-35.36,11.95-54.77,10.57-38.72-2.76-63.87-37-56.49-75.15,4.7-24.29,16.11-45.45,32-64,10.33-12.06,22.12-22.88,33.43-34.07,7.08-7,14.74-13.42,21.68-20.54,8.43-8.67,14.8-18.64,17.76-30.64a43.5,43.5,0,0,0-31-52.9c-15.1-4.19-30-2.29-44.9,1-23.18,5.08-44.69,14.49-64.9,26.66-27.28,16.44-54.09,33.67-81.32,50.19-18.71,11.35-37.5,22.64-56.8,32.92a216.11,216.11,0,0,1-61.74,21.72,121.44,121.44,0,0,1-29.65,2c-30.93-1.91-51.47-21.68-55.7-52.51a106.69,106.69,0,0,1,8.26-58.44c5-11.28,10.84-22.17,16.42-33.17,4.68-9.24,10.3-18.08,14.08-27.66a131.1,131.1,0,0,0,7.21-27.56c1.71-10.91-2.86-19.8-12.95-24.6-7.48-3.56-15.37-6.79-23.42-8.5-23.46-5-46.62-2.56-69.64,3.84C494.46,146,443.27,173.81,394.16,206.21c-33.32,22-65.19,45.93-94.81,72.57C223.24,347.23,180,432.9,169.24,534.71c-7.38,70.19,8.82,154.2,31.48,220.63C201.09,756.43,199.45,734.1,199.43,729.88ZM596,580.75c-7.15-13-12.91-24.83-19.83-35.9-42.23-67.51-109.29-93.8-186.06-77.76-26.63,5.57-49.69,18.92-72.42,33A183,183,0,0,0,278,532.36C243.67,570,226.34,615,219.6,664.68c-5.49,40.5-3.93,81.1-1.36,121.71a55.56,55.56,0,0,0,6.66,22.67c30.21,57.5,69.83,107.37,119.87,148.86,32.54,27,68,48.88,109.43,59,16.11,3.92,32.94,6.92,49.43,6.87,35-.09,61-17.75,80.39-46.22,14.82-21.76,23.65-46,29.67-71.31,16.11-67.67,18.94-136.34,13.74-205.47-.64-8.57-2.29-17.06-3.56-26.25l-11.65,2c-1.07,29.06-24.36,40.17-48.48,21.66-4.1,2.88-8,6.58-12.64,8.5-2.65,1.09-6.25,2.06-9.62-1.47-1.88-2.44-2-5.83.09-9.28,1-1.24,2.27-3.62,3.48-4.65,23.11-24.58,72.71-32.89,75.5-33.68-4.49-20.86-17.89-61.07-18.65-61C557.74,598.29,500.62,649,502,702.24c1.12,42.25,8.82,82.26,33.05,117.85a108.13,108.13,0,0,1,8.59,14.34c4.05,8.55,1.82,14.52-6.61,18.66-3.55,1.75-7.47,2.73-11.1,4.34-10.92,4.85-22,11.87-26.52,23.56a3.55,3.55,0,0,0,1.28,4.17c4.74,3.24,11,6.21,14.57,9.8,11,11.07,10.61,22.65-.8,32.94-2,1.78-4.65,2.8-7.12,4.24,4.55,4.53,7.27,6.85,9.53,9.56,11.64,13.93,6.36,33.29-10.22,41.14-2.74.92-6.38,1.29-8-.73-4.72-4.7,1.57-11.47,2.38-12.33,11.4-12.15,11.34-12.86-1.64-22.23-6.16-4.44-10.84-8.42-8.05-15.32,1.43-3.54,10.78-10.67,17.71-15.46a5.32,5.32,0,0,0-.36-9c-5.6-3.28-11.27-5.72-14.35-7.9-10.68-7.56-12.56-13.32-7.71-25.45,5.76-14.41,16.24-24.32,29.91-31.12,2-1,4.58-2,7.2-3a4,4,0,0,0,1.71-5.93c-2.43-3.47-5-6.68-7.09-9.75-14.5-21.49-23.07-45.28-27.88-70.61-4.94-26-9-52.56-1.69-78.24,13.87-48.66,46.71-79.27,95.53-92.54C587.39,582.37,590.49,581.89,596,580.75ZM573.55,690.06c17.84,12,25.31,8.64,27.32-10.86A66.73,66.73,0,0,0,573.55,690.06Z"/></svg>