<?xml version="1.0" encoding="utf-8"?>
<!-- Generator: Adobe Illustrator 24.2.0, SVG Export Plug-In . SVG Version: 6.00 Build 0)  -->
<svg version="1.1" id="Layer_1" xmlns="http://www.w3.org/2000/svg" xmlns:xlink="http://www.w3.org/1999/xlink" x="0px" y="0px"
	 viewBox="0 0 2834.6 1417.3" style="enable-background:new 0 0 2834.6 1417.3;" xml:space="preserve">
<style type="text/css">
	.st0{fill:#646566;}
	.st1{fill:#F4DAD2;}
	.st2{fill:#B66C6D;}
</style>
<path class="st0" d="M1187.2,723.5l-0.7-1.2c-1-1.9-2.5-2.6-4.6-1.9c-6.9,2.1-15.2,5.3-25,9.5c-9.8,4.3-17.4,8.1-22.8,11.4
	c-1.6,1-3.2,0.8-4.7-0.6c-1.5-1.4-3.3-3-5.4-4.8c-2.1-1.8-4.2-3.7-6.4-5.5c-2.2-1.8-4.1-3.6-5.9-5.2c-5.3-5.3-6.8-10.7-4.6-16.1
	c2.2-5.4,6.1-10.2,11.4-14.3c5.4-4.1,10.4-6.6,15-7.6c1.3-0.3,2.4,0,3.5,1.1c1,1,1.5,2.2,1.3,3.5c-0.2,0.6-0.3,1.3-0.5,1.9
	c-0.6,2.1,0.1,3.6,2.2,4.6c1,0.6,2,0.8,3,0.4c1-0.4,1.7-1.1,2-2c3.8-12,1-18.7-8.7-20c-4.7-0.6-10.2,0.7-16.7,4
	c-6.5,3.3-12.1,7.7-16.7,13.2c-4.6,5.5-7.3,11.8-7.9,18.8c-0.3,2.9,0.1,5.7,1.2,8.5c-6.5,2.1-14.1,5-22.8,8.8
	c-9.8,4.3-17.4,8.1-22.8,11.4c-1.6,1-3.2,0.8-4.7-0.6c-1.5-1.4-3.3-3-5.4-4.8c-2.1-1.8-4.2-3.7-6.4-5.5c-2.2-1.8-4.1-3.6-5.9-5.2
	c-5.3-5.3-6.8-10.7-4.6-16.1c2.2-5.4,6.1-10.2,11.4-14.3c5.4-4.1,10.4-6.6,15-7.6c1.3-0.3,2.4,0,3.5,1.1c1,1,1.5,2.2,1.3,3.5
	c-0.2,0.6-0.3,1.3-0.5,1.9c-0.6,2.1,0.1,3.6,2.2,4.6c1,0.6,2,0.8,3,0.4c1-0.4,1.7-1.1,2-2c3.8-12,1-18.7-8.7-20
	c-4.7-0.6-10.2,0.7-16.7,4c-6.5,3.3-12.1,7.7-16.7,13.2c-4.6,5.5-7.3,11.8-7.9,18.8c-0.4,4.9,1,9.7,4.3,14.4
	c-3.5,6-7.9,11.6-13.2,17c-5.6,5.6-12.1,10.3-19.4,14.2c-7.3,3.8-14.5,6-21.5,6.5c-5.9,0.3-10.4-1.3-13.5-4.8
	c-3-3.5-4.8-8.3-5.3-14.4c1,0.3,2,0.5,3.1,0.5c8.7,0.2,17.8-5.1,27.4-15.6c9.1-10.1,13.8-19.4,13.9-27.9c0.2-9.5-6.3-13.8-19.2-13
	c-2.7,0.3-5.5,1-8.2,1.9c-10.4,3.8-18.6,12.7-24.5,26.5c-4.1,9.6-6.1,18.6-5.9,27.2c-0.3,0.5-0.6,1-1,1.5c-2.5,3.9-4.7,7.5-6.7,10.6
	c-2,3.1-4.5,7-7.6,11.5c-3,4.6-5.9,8.6-8.5,12c-2.6,3.5-5.5,7.1-8.7,10.8c-3.1,3.8-6.1,6.8-8.8,9c-2.7,2.2-5.4,4.1-7.9,5.5
	c-2.6,1.4-4.9,1.9-7.1,1.3c-2.2-0.6-4-2-5.4-4.5c-5-8.2-6.3-30-4.1-65.4c11.4-16.2,20.4-33.3,27.1-51.2c6.7-18,9.3-35.6,7.8-52.9
	c-0.3-4-1.2-7.5-2.8-10.6c-1.5-3-3.4-5.2-5.7-6.4c-2.2-1.2-4.6-1.5-7.1-1c-2.5,0.6-5.1,2.6-7.7,6.3c-2.6,3.6-4.9,8.5-6.9,14.8
	c-3,9.9-6.3,25-9.9,45.2c-3,17.4-5.2,34.4-6.6,51c-4.2,0.9-8.3,0.9-12.4,0.1c-4.3-0.9-8.1-3.6-11.3-8.2c-3.2-4.6-5.4-10.7-6.5-18.4
	c-0.5-3.7-1.9-4.7-4.3-3.1c-2.7,1.8-4.2,4.4-4.3,7.9c0,0.3,0,2.1-0.1,5.4c-0.1,3.3-0.2,5.9-0.2,7.8c-0.1,1.9-0.2,4.8-0.5,8.7
	c-0.2,3.8-0.6,7.1-1.1,9.6c-0.5,2.6-1,5.6-1.6,9.1c-0.6,3.5-1.3,6.4-2.3,8.7c-1,2.2-2.1,4.5-3.4,6.7c-1.3,2.2-2.8,3.9-4.4,4.9
	c-1.7,1-3.5,1.6-5.4,1.6c-8.7,0-13.8-20.2-15.4-60.6c0-3.2-0.2-5.8-0.5-7.7c-0.5-2.1-1.7-3.1-3.6-3c-1.9,0.1-3.1,0.9-3.6,2.5
	c-0.8,2.9-2.4,11.3-4.9,25.4c-2.5,14-5.2,26.1-8.1,36.3c-2.9,10.2-5.9,15.4-9.1,15.5c-4,0.5-7.4-5.1-10.2-16.8
	c-2.8-11.7-4.6-24.3-5.3-37.9c-0.7-13.5-0.7-24.1,0.1-31.6c0.3-1.9-1.3-2.8-4.8-2.6c-4.5,0.5-6.9,1.6-7.2,3.4
	c-0.5,3.4-0.9,7.7-1.3,12.9c-0.4,5.2-0.7,11.7-0.8,19.5c0,1.7,0,3.3,0,5c-4.7,3.9-10.2,8.1-16.6,12.6c-9.9,7-18,10.5-24.3,10.7
	c-1.8,0-3.4-0.7-5.1-2c-1.6-1.4-2.9-3.4-3.8-6.1c-1-2.7-1.5-5.9-1.7-9.6c-0.2-3.7,0.5-8,2-13c1.5-5,3.9-10.1,7.1-15.4
	c0.6-0.8-0.2-2.6-2.4-5.4c-2.2-2.8-3.8-3.8-4.8-3c-1.3,1-2.9,2.3-4.8,4.1c-4.3-5.4-9.6-8.4-15.9-8.9c-11.9-1.3-24.9,5.4-39,20
	c-12.3,12.8-20.4,25.9-24.3,39.2c-0.6,2.1-1.1,4.1-1.4,6c-1.2,1.8-2.5,3.8-3.9,5.9c-3,4.6-5.9,8.6-8.5,12c-2.6,3.5-5.5,7.1-8.7,10.8
	c-3.1,3.8-6.1,6.8-8.8,9c-2.7,2.2-5.4,4.1-7.9,5.5c-2.6,1.4-4.9,1.9-7.1,1.3c-2.2-0.6-4-2-5.4-4.5c-5-8.2-6.3-30-4.1-65.4
	c11.4-16.2,20.4-33.3,27.1-51.2c6.7-18,9.3-35.6,7.8-52.9c-0.3-4-1.2-7.5-2.8-10.6c-1.5-3-3.4-5.2-5.7-6.4c-2.2-1.2-4.6-1.5-7.1-1
	c-2.5,0.6-5.1,2.6-7.7,6.3c-2.6,3.6-4.9,8.5-6.9,14.8c-2.1,7-4.4,16.5-6.8,28.5c-1.2-3.8-5-6.9-11.6-9.3c-6.7-2.4-14-3.9-22-4.4
	c-8-0.6-15.9-1-23.6-1.3c-7.7-0.3-13.1-0.2-16.1,0.2c-20.8,1.1-39.6,3.5-56.3,7.2c1.4-23.9,2.9-45.3,4.3-64.2
	c5.1-34.8,9-62.1,11.5-81.8c17.5-4.6,30.1-7.5,38-8.7c64.9-9.1,126.6-10.8,185-5.1c5.3,0.5,8,0.7,8.1,0.7c0.1,0,2.8-0.7,8.1-2.2
	l1-4.6c-0.8-0.5-1.6-1-2.4-1.6c-0.8-0.6-1.4-1-1.8-1.2c-0.4-0.2-0.8-0.5-1.3-0.8c-0.5-0.3-0.8-0.6-1-0.7c-0.2-0.2-0.5-0.3-1-0.5
	c-0.5-0.2-0.8-0.3-1-0.4c-0.2-0.1-0.5-0.2-1.1-0.4c-0.6-0.2-1-0.2-1.3-0.2c-0.3,0-1-0.1-2-0.2c-1-0.2-1.9-0.3-2.5-0.5
	c-14.4-2.2-31.6-3.5-51.5-3.8c-19.9-0.3-39.9,0.2-60,1.6c-20.1,1.4-39.8,3.2-59.2,5.7c-19.3,2.4-36.6,5.2-51.8,8.4l-0.5,0.2
	c1.6-13.1,2.6-22.6,2.9-28.4c0.2-1.1,0.2-2.2,0.2-3.4h-0.2c0-1.9-0.2-3-0.5-3.4c-4.7-3.5-9.6,9.2-14.9,38.2
	c-17.5,4.5-34.2,9.6-50.3,15.4c-16,5.8-25.1,10.9-27.2,15.4c-1,2.1-0.3,3.2,1.9,3.4c1.8,0,10.3-2.1,25.7-6.3c5-1.3,13-3.5,24.2-6.7
	c11.1-3.2,18.9-5.4,23.2-6.5c-0.6,4.5-1.3,9.2-1.9,14.1c-0.6,4.9-1.2,9.3-1.7,13.1s-0.9,7.4-1.2,10.6c-0.3,3.2-0.6,5.9-0.8,7.9
	c-0.2,2.1-0.4,3.2-0.4,3.4c-4.2,31.6-7.7,63.8-10.6,96.7c-22.6,6.3-39.8,14.9-51.7,26c-0.6,2.2-0.3,3.8,1,4.7
	c1.3,0.9,3.4,1.2,6.3,1.1c7.7-7.1,22.1-13.1,43.3-18.3c-6.1,69.1-8.9,130.3-8.4,183.5c0.2,35.8,4.9,50.2,14.2,43.3
	c2.4-1.8,3.1-7.5,2.2-17.3c-1.1-41.5-0.2-89.6,2.6-144.1c1.9-35.3,3.1-58.1,3.6-68.5c19.7-3.8,39.8-6.2,60.4-7.1
	c20.5-0.9,36.1,0,46.7,2.5c0.8,0.3,2.1,0.8,4,1.3c1.8,0.6,3.2,0.9,4.2,1.1l6,2.4c-0.5-1-1.3-2.4-2.4-4.3c0.8,1,1.4,2,1.9,3.1
	c1,0,2.4,0,4.2-0.1c1.8-0.1,3.2-0.1,4-0.1c0.3-0.6,0.7-1.3,1.1-2c0,0,0,0,0,0c-0.8,4.3-1.7,8.9-2.5,13.9
	c-3.5,20.2-5.9,39.8-7.2,58.9c-0.8,9.8-1.2,18.8-1.2,26.9c0,9.5,0.5,17.6,1.4,24.3c1.3,8.2,3.7,14.7,7.3,19.5
	c3.6,4.8,9,7.3,16.2,7.5c5.8,0.2,11.9-2.5,18.5-7.9c6.6-5.5,12.7-12.4,18.4-20.9c3-4.5,5.8-8.9,8.4-13.4c1.7,1.9,4,3.3,7.1,4
	c4.2,1,9.9-0.7,17.1-5.1s14.3-9.7,21.4-16.2c7.1-6.5,14.3-13.7,21.6-21.8c-0.2,9.8,2,17.7,6.6,23.8c4.6,6.1,11.4,8.9,20.6,8.4
	c9.3-0.5,18.6-4.5,27.8-12.1c4-3.3,7.6-6.7,10.9-10.2c0.1,1.4,0.3,2.8,0.4,4.2c0.9,7.5,2.3,14.6,4.2,21.3c1.9,6.7,4.9,12.1,9,16.2
	c4.1,4.1,9,6.1,14.8,6.1c4.5,0,9-4.4,13.5-13.2c4.5-8.8,7.6-18.2,9.4-28.1c0,8.8,1.9,16.6,5.8,23.3s8.7,10.1,14.7,10.1
	c2.7,0,5.3-0.5,7.7-1.6c2.4-1,4.5-2.5,6.4-4.3c1.8-1.8,3.6-4,5.2-6.4c1.6-2.4,3-5.1,4.1-8.1c1.1-3,2.1-5.8,2.9-8.5
	c0.8-2.7,1.5-5.7,2.2-8.8c0.6-3.1,1.1-5.8,1.4-8.1c0.3-2.2,0.6-4.6,1-7c4.6,5.1,11.3,7.7,20,7.7c2.6,0,5.6-0.5,8.9-1.6
	c-0.8,9.7-1.2,18.7-1.2,26.9c0,9.5,0.5,17.6,1.4,24.3c1.3,8.2,3.7,14.7,7.3,19.5c3.6,4.8,9,7.3,16.2,7.5c5.8,0.2,11.9-2.5,18.5-7.9
	c6.6-5.5,12.7-12.4,18.4-20.9c5.7-8.5,10.7-16.9,15-25.3c1.4-2.7,2.7-5.4,4-8c0.1,0.4,0.2,0.8,0.3,1.2c4.2,13.8,13.7,20.7,28.6,20.7
	c10.1,0,21.4-4.8,33.9-14.3c11.9-9.1,20.6-19.8,26.1-32.2c0.3,0.3,0.5,0.5,0.8,0.8c1.9,1.8,5.1,4.5,9.4,8.2c4.3,3.7,7.4,6.4,9.1,8.2
	l-0.2,0.2c-3.4,2.9-7.1,6.8-11.1,11.8c-4,5-7.9,10.7-11.7,17.2c-3.8,6.5-6,12.6-6.6,18.3c-0.6,5.7,0.7,10.7,4.1,15
	c3.8,3.5,8,4.5,12.4,2.9c4.4-1.6,8.7-4.9,12.9-9.7c4.2-4.9,7.7-9.8,10.6-14.8c2.9-5,4.8-9.1,5.8-12.3c2.7-8.7,2.9-16.2,0.5-22.6
	c-0.6-1.9-0.2-3.4,1.4-4.3c3.5-2.1,10.8-5.8,21.9-11.1c9.9-4.7,17-8.3,21.4-10.7c1.1,1.3,2.3,2.5,3.6,3.8c1.9,1.8,5.1,4.5,9.4,8.2
	c4.3,3.7,7.4,6.4,9.1,8.2l-0.2,0.2c-3.4,2.9-7.1,6.8-11.1,11.8c-4,5-7.9,10.7-11.7,17.2c-3.8,6.5-6,12.6-6.6,18.3
	c-0.6,5.7,0.7,10.7,4.1,15c3.8,3.5,8,4.5,12.4,2.9c4.4-1.6,8.7-4.9,12.9-9.7c4.2-4.9,7.7-9.8,10.6-14.8c2.9-5,4.8-9.1,5.8-12.3
	c2.7-8.7,2.9-16.2,0.5-22.6c-0.6-1.9-0.2-3.4,1.4-4.3c3.5-2.1,10.8-5.8,21.9-11.1s18.7-9.1,22.8-11.5
	C1187.9,727.2,1188.3,725.6,1187.2,723.5z M951.7,712.6c4.3-6.7,9.4-10.5,15.2-11.4c6.6-1.3,9.7,0.1,9.4,4.1
	c-0.5,5.1-5,11.6-13.5,19.5c-8.8,8.3-15.3,11.8-19.5,10.3C944.6,726.7,947.4,719.2,951.7,712.6z M540.9,656.8
	c3.7-17.2,7.3-27.5,10.8-30.7c0.6,0.3,1.3,1.4,1.9,3.4c2.9,10.1,2,23-2.5,38.6c-4.6,15.6-10.9,31.3-18.9,47
	C534.4,693.4,537.2,674,540.9,656.8z M644.4,727.1c-6.7,6.9-12.2,12.4-16.5,16.6c-4.2,4.2-9,8.5-14.3,13c-5.3,4.5-9.5,7.5-12.5,8.9
	c-0.8,0.5-1.3,0.6-1.6,0.2c-0.2-0.3-0.4-1.1-0.4-2.4c0-3.4,0.9-7.1,2.6-11.2c1.8-4.1,4.1-8.1,7-12c2.9-3.9,6.1-7.8,9.6-11.7
	c3.5-3.8,7.3-7.2,11.2-10c3.9-2.8,7.7-5.1,11.3-6.7c3.6-1.7,7-2.5,10.1-2.4c3.1,0.1,5.7,1.2,7.6,3.2
	C655.8,715.4,651.1,720.2,644.4,727.1z M874.5,656.8c3.7-17.2,7.3-27.5,10.8-30.7c0.6,0.3,1.3,1.4,1.9,3.4c2.9,10.1,2,23-2.5,38.6
	c-4.6,15.6-10.9,31.3-18.9,47C867.9,693.4,870.8,674,874.5,656.8z M1041.9,780.7c-3.5,7.1-7.8,13.2-12.7,18.5
	c-1.4,1.3-3,1.4-4.8,0.2c-1.8-1.1-2.3-2.6-1.7-4.3c1-3.2,2.5-6.9,4.6-10.9c2.1-4.1,4.2-7.7,6.4-10.8c2.2-3.1,4-5.5,5.4-7.1
	c2.2-2.4,4.6-4.6,7-6.7C1047.4,765.3,1046.1,772.4,1041.9,780.7z M1125.4,780.7c-3.5,7.1-7.8,13.2-12.7,18.5c-1.4,1.3-3,1.4-4.8,0.2
	c-1.8-1.1-2.3-2.6-1.7-4.3c1-3.2,2.5-6.9,4.6-10.9c2.1-4.1,4.2-7.7,6.4-10.8c2.2-3.1,4-5.5,5.4-7.1c2.2-2.4,4.6-4.6,7-6.7
	C1130.9,765.3,1129.5,772.4,1125.4,780.7z"/>
<g>
	<path class="st1" d="M1447.2,667c0.8,1,1.4,2,1.9,3.1c1,0,2.4,0,4.2-0.1c1.8-0.1,3.2-0.1,4-0.1c0.3-0.6,0.7-1.3,1.1-2
		c0.4-0.7,0.6-1.2,0.6-1.3c0-0.2,0-0.6,0-1.4c-1.1-3.8-5-7-11.7-9.4c-6.7-2.4-14-3.9-22-4.4c-8-0.6-15.9-1-23.6-1.3
		c-7.7-0.3-13.1-0.2-16.1,0.2c-20.8,1.1-39.6,3.5-56.3,7.2c1.4-23.9,2.9-45.3,4.3-64.2c5.1-34.8,9-62.1,11.5-81.8
		c17.5-4.6,30.1-7.5,38-8.7c64.9-9.1,126.6-10.8,185-5.1c5.3,0.5,8,0.7,8.1,0.7c0.1,0,2.8-0.7,8.1-2.2l1-4.6c-0.8-0.5-1.6-1-2.4-1.6
		c-0.8-0.6-1.4-1-1.8-1.2c-0.4-0.2-0.8-0.5-1.3-0.8c-0.5-0.3-0.8-0.6-1-0.7c-0.2-0.2-0.5-0.3-1-0.5c-0.5-0.2-0.8-0.3-1-0.4
		c-0.2-0.1-0.5-0.2-1.1-0.4c-0.6-0.2-1-0.2-1.3-0.2c-0.3,0-1-0.1-2-0.2c-1-0.2-1.9-0.3-2.5-0.5c-14.4-2.2-31.6-3.5-51.5-3.8
		c-19.9-0.3-39.9,0.2-60,1.6c-20.1,1.4-39.8,3.2-59.2,5.7c-19.3,2.4-36.6,5.2-51.8,8.4l-0.5,0.2c1.6-13.1,2.6-22.6,2.9-28.4
		c0.2-1.1,0.2-2.2,0.2-3.4h-0.2c0-1.9-0.2-3-0.5-3.4c-4.7-3.5-9.6,9.2-14.9,38.2c-17.5,4.5-34.2,9.6-50.3,15.4
		c-16,5.8-25.1,10.9-27.2,15.4c-1,2.1-0.3,3.2,1.9,3.4c1.8,0,10.3-2.1,25.7-6.3c5-1.3,13-3.5,24.2-6.7c11.1-3.2,18.9-5.4,23.2-6.5
		c-0.6,4.5-1.3,9.2-1.9,14.1c-0.6,4.9-1.2,9.3-1.7,13.1s-0.9,7.4-1.2,10.6c-0.3,3.2-0.6,5.9-0.8,7.9c-0.2,2.1-0.4,3.2-0.4,3.4
		c-4.2,31.6-7.7,63.8-10.6,96.7c-22.6,6.3-39.8,14.9-51.7,26c-0.6,2.2-0.3,3.8,1,4.7c1.3,0.9,3.4,1.2,6.3,1.1
		c7.7-7.1,22.1-13.1,43.3-18.3c-6.1,69.1-8.9,130.3-8.4,183.5c0.2,35.8,4.9,50.2,14.2,43.3c2.4-1.8,3.1-7.5,2.2-17.3
		c-1.1-41.5-0.2-89.6,2.6-144.1c1.9-35.3,3.1-58.1,3.6-68.5c19.7-3.8,39.8-6.2,60.4-7.1c20.5-0.9,36.1,0,46.7,2.5
		c0.8,0.3,2.1,0.8,4,1.3c1.8,0.6,3.2,0.9,4.2,1.1l6,2.4C1449.1,670.3,1448.3,668.9,1447.2,667z"/>
	<path class="st1" d="M1467.7,673.2c-1-0.6-2.2-1-3.5-1c-2.1,0-3.8,0.7-5.2,2.2c-1.4,1.4-2,3.1-2,5.1c0,1.9,0.7,3.6,2,4.9
		c1.4,1.4,3,2,5.1,2c2,0,3.7-0.7,5.1-2c1.4-1.4,2-3,2-4.9c0-1.3-0.3-2.5-1-3.6C1469.6,674.8,1468.8,673.9,1467.7,673.2z"/>
	<path class="st1" d="M1693.4,726.6c-1.8-0.6-3.3,0-4.6,1.9c-0.8,1.3-2.8,4.4-5.9,9.4c-3.1,5-6,9.4-8.5,13.3
		c-2.6,3.9-5.6,8.2-9,12.9c-3.5,4.7-6.7,8.5-9.9,11.5c-3.1,3-6,4.9-8.5,5.5c-1.3,0-2.3-1.6-3.1-4.8c-0.8-3.2-1.4-7-1.7-11.4
		c-0.3-4.4-0.6-8-0.7-10.8c-0.2-2.8-0.2-4.8-0.2-6.1c0-2.2,0.2-4.9,0.5-8.3c0.4-1.1,0.6-2.1,0.8-3c0.5-2.6,0.5-4.2-0.1-4.8
		c0.7-6.4,1.6-14.2,2.8-23.4c0.6-2.1,0.7-4.1,0.1-6.1c-0.6-2-2.1-2.6-4.7-1.8c-4,1.4-7.4,9.5-10.1,24.1c-1.7,9.4-2.5,18.2-2.6,26.5
		c-0.8,1.4-1.4,2.4-1.8,3.1c-0.9,1.4-2.5,4-4.8,7.7c-2.3,3.7-4.2,6.4-5.7,8.1c-1.4,1.7-3.2,3.8-5.4,6.5c-2.2,2.6-4.3,4.9-6.5,6.7
		c-2.2,1.8-4.5,3.6-6.9,5.2c-5.6,3.7-9.5,3.6-11.8-0.2c-2.1-3.5-3-13.9-2.6-31c0-9.3-0.1-16.2-0.2-20.7
		c-1.1-21.5-6.9-33.3-17.3-35.6c-4.7-1-9.3-0.1-13.9,2.5c-4.7,2.6-9,6.7-13,12c-4,5.4-7.6,11.1-10.8,17.1c-3.2,6-6.3,12.6-9.1,19.8
		c0-2.6,0-6.8,0.1-12.6c0.1-5.9,0.1-9.7,0.1-11.7c0.2-0.6,0.4-3.3,0.7-7.9c0.3-4.6,0.5-8.3,0.5-10.9s-0.2-6.1-0.7-10.5l0.2-1.7h-0.5
		c-1.1-4.3-3.1-6.5-6-6.5c-3.5,0.2-5.7,2.4-6.5,6.7c-0.5,2.7-0.6,6.8-0.2,12.3c0,1.4,0,2.9,0,4.3v4.1c-0.1,4.3-0.3,10.1-0.6,17.2
		c-0.5,0.8-1.1,1.7-1.7,2.7c-3.1,5-6,9.4-8.5,13.3c-2.6,3.9-5.6,8.2-9,12.9c-3.4,4.7-6.7,8.5-9.9,11.5c-3.1,3-6,4.9-8.5,5.5
		c-1.3,0-2.3-1.6-3.1-4.8c-0.8-3.2-1.4-7-1.7-11.4c-0.3-4.4-0.6-8-0.7-10.8c-0.2-2.8-0.2-4.8-0.2-6.1c0.2-6.9,1.5-20,4.1-39.4
		c0.6-2.1,0.7-4.1,0.1-6.1c-0.6-2-2.1-2.6-4.7-1.8c-4,1.4-7.4,9.5-10.1,24.1c-3.5,20-3.5,37.5,0,52.4c4,16.8,11.9,22,23.8,15.6
		c4.6-2.6,9.9-7.9,15.8-16.1c5.2-7.3,9.8-14.7,13.8-22.2c-0.2,5.1-0.3,9.1-0.4,12.1c-0.2,6.1,0.6,10.5,2.3,13.3
		c1.7,2.8,5,4.2,10,4.2c1,0,4-5.5,9.1-16.5c5.1-11,10.9-22.3,17.4-33.9c6.5-11.6,12-18,16.5-19.1c3.2-0.8,5.4,0.8,6.6,4.9
		c1.2,4.1,1.5,9.6,1,16.5c-0.6,6.9-0.8,14.4-0.7,22.6c0.1,8.2,0.5,15.8,1.2,22.8s3,12.9,7,17.6c3.9,4.6,9.3,6.8,16.2,6.5
		c3.2,0,6.7-1.4,10.5-4.1c3.8-2.7,7.4-6.2,10.8-10.5c3.4-4.2,6.9-8.9,10.5-14.1c2.3-3.4,4.4-6.8,6.4-10.1c0.4,3.6,1,7.1,1.8,10.4
		c4,16.8,11.9,22,23.8,15.6c4.6-2.6,9.9-7.9,15.8-16.1c5.9-8.2,10.9-16.6,15.3-25.1c4.3-8.6,7.2-15.7,8.7-21.3
		C1694.8,728.6,1694.6,727.4,1693.4,726.6z"/>
	<path class="st1" d="M1643.5,686.5c2,0,3.7-0.7,5.1-2c1.4-1.4,2-3,2-4.9c0-1.3-0.3-2.5-1-3.6c-0.6-1.1-1.5-2-2.5-2.6
		c-1-0.6-2.2-1-3.5-1c-2.1,0-3.8,0.7-5.2,2.2c-1.4,1.4-2,3.1-2,5.1c0,1.9,0.7,3.6,2,4.9C1639.9,685.8,1641.5,686.5,1643.5,686.5z"/>
	<path class="st1" d="M1893.3,737.7l-0.2-0.5c-1.4-1.3-2.8-1.1-4.1,0.5c-0.6,1-2.3,3.3-5.1,7c-2.7,3.7-4.9,6.6-6.5,8.7
		c-1.6,2.1-3.8,4.8-6.7,8.1c-2.9,3.3-5.5,5.8-7.7,7.6c-2.2,1.8-4.8,3.3-7.6,4.7c-2.8,1.4-5.5,2-8.1,1.8c-3.5-0.2-6.1-2.4-7.7-6.7
		c-1.6-4.3-2.5-9.6-2.8-15.9c-0.2-6.3-0.4-12.5-0.6-18.9c-0.2-6.3-1-12.1-2.6-17.3c-1.6-5.2-4.2-8.5-7.7-9.7
		c-3.2-1.3-6.5-1.2-9.9,0.4c-3.4,1.5-6.5,4-9.4,7.3c-2.9,3.4-5.7,7.7-8.5,12.9c-2.8,5.2-5.3,10.5-7.6,16c-2.2,5.5-4.3,11.3-6.3,17.6
		c0.3-6.7,0.8-20.2,1.4-40.4c0.6-20.2,1.5-37.5,2.5-51.8c1-14.3,2.5-28.3,4.4-41.7c0.3-1.4-0.5-2.7-2.4-3.8
		c-2.4-1.6-3.9-1.4-4.6,0.5c-4.7,16.5-8.4,44.6-11.2,84.2c-0.3,4.7-0.6,9.3-0.9,13.7c-6.1,2-13.2,4.8-21.3,8.3
		c-9.8,4.3-17.4,8.1-22.8,11.4c-1.6,1-3.2,0.8-4.7-0.6c-1.5-1.4-3.3-3-5.4-4.8c-2.1-1.8-4.2-3.7-6.4-5.5c-2.2-1.8-4.1-3.6-5.9-5.2
		c-5.3-5.3-6.8-10.7-4.6-16.1c2.2-5.4,6.1-10.2,11.4-14.3c5.4-4.1,10.4-6.6,15-7.6c1.3-0.3,2.4,0,3.5,1.1c1,1,1.5,2.2,1.3,3.5
		c-0.2,0.6-0.3,1.3-0.5,1.9c-0.6,2.1,0.1,3.6,2.2,4.6c1,0.6,2,0.8,3,0.4c1-0.4,1.7-1.1,2-2c3.8-12,1-18.7-8.7-20
		c-4.7-0.6-10.2,0.7-16.7,4c-6.5,3.3-12.1,7.7-16.7,13.2c-4.6,5.5-7.3,11.8-7.9,18.8c-0.6,7,2.6,13.8,9.6,20.3
		c1.9,1.8,5.1,4.5,9.4,8.2c4.3,3.7,7.4,6.4,9.1,8.2l-0.2,0.2c-3.4,2.9-7.1,6.8-11.1,11.8c-4,5-7.9,10.7-11.7,17.2
		c-3.8,6.5-6,12.6-6.6,18.3c-0.6,5.7,0.7,10.7,4.1,15c3.8,3.5,8,4.5,12.4,2.9c4.4-1.6,8.7-4.9,12.9-9.7c4.2-4.9,7.7-9.8,10.6-14.8
		c2.9-5,4.8-9.1,5.8-12.3c2.7-8.7,2.9-16.2,0.5-22.6c-0.6-1.9-0.2-3.4,1.4-4.3c3.5-2.1,10.8-5.8,21.9-11.1
		c5.7-2.7,10.6-5.1,14.4-7.1c-1.5,27.5-1.6,49.2-0.5,65c0.2,3.4,0.9,5.1,2.2,5.1h5.8c1.3,0,2.2-0.6,2.6-1.9c1.1-5,3.2-12,6.1-21
		c3-9.1,6.4-18.8,10.3-29.1c3.9-10.3,8-19,12.3-26c4.2-7,7.7-9.9,10.5-8.8c1.3,0.6,2.2,2.8,2.6,6.6c0.5,3.8,0.7,8.2,0.7,13.3
		c0,5.1,0.3,10.7,0.8,16.6c0.6,5.9,1.4,11.4,2.4,16.4c1,5,3.1,9.1,6.1,12.4c3,3.3,6.9,4.9,11.5,4.9c4.8,0,9.6-1.4,14.4-4.3
		c4.8-2.9,9.3-6.8,13.3-11.7c4.1-4.9,7.7-9.7,10.7-14.4c3-4.7,5.9-9.7,8.7-15C1894.4,739.5,1894.3,738.5,1893.3,737.7z
		 M1720.9,780.7c-3.5,7.1-7.8,13.2-12.7,18.5c-1.4,1.3-3,1.4-4.8,0.2c-1.8-1.1-2.3-2.6-1.7-4.3c1-3.2,2.5-6.9,4.6-10.9
		c2.1-4.1,4.2-7.7,6.4-10.8c2.2-3.1,4-5.5,5.4-7.1c2.2-2.4,4.6-4.6,7-6.7C1726.4,765.3,1725,772.4,1720.9,780.7z"/>
</g>
<g>
	<path class="st2" d="M2204.5,703.1c8.8,0,16.8,0.4,23.8,1.2c13.3,1.4,22.7,2.2,28.1,2.4c1.4-3,2.2-5.4,2.2-7.2c0-1.8-0.3-3.8-1-6.3
		c-0.3-1.3-7.8-2.8-22.5-4.6c-14.7-1.8-24.8-2.7-30.4-2.9c0.3-14.9,0.7-33.1,1.2-54.6c0.3-10.1,0.8-21,1.6-32.6
		c0.7-11.6,1.3-20.7,1.8-27.3c0.5-6.6,1.4-17.4,2.8-32.6c1.4-15.2,2.2-24.9,2.5-29.2c1.6-8.2,0-12.4-4.8-12.7
		c-2.6-0.3-4.7,1.7-6.5,6h-0.2v0.2c-1,2.2-1.8,5.1-2.6,8.7c-0.8,3.5-1.4,7.3-1.9,11.2c-0.5,3.9-0.9,7.5-1.2,10.6
		c-0.3,3.1-0.6,6.3-0.7,9.5c-0.2,3.2-0.3,5.1-0.5,5.5c-3.8,41.8-6.7,87.6-8.4,137.3c-36.9,1.3-82.9,10.4-138.1,27.4
		c0-26.6,0.2-52,0.7-76.2v-0.2c0.6-35.9,1.8-69.6,3.6-101c0-1,0.1-2.3,0.4-4c0.2-1.7,0.4-3.3,0.6-4.8c0.2-1.5,0.3-3.2,0.5-5.1
		c0.2-1.8,0.2-3.5,0-4.9c-0.2-1.4-0.4-2.8-0.7-4.2c-0.3-1.4-0.8-2.5-1.6-3.4c-0.7-0.9-1.7-1.4-3-1.6c-1-0.2-1.9-0.2-2.8,0
		c-0.9,0.2-1.6,0.6-2.2,1.2c-0.6,0.6-1,1.2-1.4,1.8c-0.4,0.6-0.8,1.4-1.1,2.5c-0.3,1.1-0.6,2-0.7,2.6c-0.2,0.6-0.3,1.5-0.5,2.6
		c-0.2,1.1-0.2,1.8-0.2,2.2c-3.5,19.1-5.2,37.4-5.1,55.1c-3.8,44.7-6,92.6-6.5,143.6c-21,7.1-43.5,15.2-67.3,24.3
		c-1,0.8-1.2,2.1-0.8,3.8c0.4,1.8,1.2,3.5,2.5,5.2c1.3,1.7,2.2,2.4,2.9,2c8.8-3.4,18.7-6.8,29.6-10.3c10.6-3.5,21.6-7,33.2-10.3
		c0,1.9,0,3.6,0,5.1c0,13.6,0.4,32.8,1.1,57.6s1.2,39.2,1.3,43.2c0.2,10.4,0.6,19.2,1.2,26.5c0.6,7.2,1.4,12.5,2.2,15.9
		c0.8,3.4,1.7,6,2.8,7.9c1,1.9,2.1,2.7,3.2,2.4c1.1-0.3,2.2-0.4,3.1-0.2c1.1-0.3,2-0.8,2.8-1.4c0.7-0.6,1.5-2,2.3-4.2
		c0.8-2.2,1.4-5,1.8-8.5c0.4-3.5,0.6-8.6,0.7-15.3c0.1-6.7-0.2-14.6-0.8-23.7c-0.5-7.9-0.8-16.3-1.1-25.4
		c-0.2-9.1-0.4-17.6-0.5-25.7c-0.1-8.1-0.1-16.8-0.1-26c0-9.2,0-17.8,0-25.9c0-2.2,0-4.7,0-7.5c53.2-14.3,99.1-22.6,137.6-25
		c-0.2,3.7-0.2,7.4-0.2,11.1c-1.9,85.3,1.8,145.5,11.1,180.6c1,3.7,2.9,5.7,5.9,6c3,0.3,5.7-0.6,8.2-2.9c2.5-2.2,3.6-4.7,3.2-7.5
		c-8-36.9-11.7-96.5-11.1-178.9C2204.4,709,2204.5,705.9,2204.5,703.1z"/>
	<path class="st2" d="M2380,686.5c2,0,3.7-0.7,5.1-2c1.4-1.4,2-3,2-4.9c0-1.3-0.3-2.5-1-3.6c-0.6-1.1-1.5-2-2.5-2.6
		c-1-0.6-2.2-1-3.5-1c-2.1,0-3.8,0.7-5.2,2.2c-1.4,1.4-2,3.1-2,5.1c0,1.9,0.7,3.6,2,4.9C2376.3,685.8,2378,686.5,2380,686.5z"/>
	<path class="st2" d="M2520.6,730.2c-2.1-1.4-4.3-1.6-6.7-0.5c-3,1.4-5.6,2.7-7.7,3.8c-3.7,1.8-6.7,1.6-8.9-0.5
		c-2.2-2.1-3.8-5.3-4.8-9.7c-1-4.4-1.9-9-2.8-13.7c-0.9-4.7-2.2-9.1-4-13c-1.8-3.9-4.1-6.3-7-7.1c-3.7-1-7.3-0.2-10.9,2.4
		c-3.6,2.6-7,6.5-10.2,11.8c-3.2,5.3-6.1,11-8.7,17.1c-2.6,6.1-5.1,12.9-7.5,20.4c0-3.2,0-5.5,0-7c0-0.2,0.1-1.4,0.4-3.7
		c0.2-2.3,0.5-4.7,0.7-7.1c0.2-2.4,0.3-5.2,0.2-8.3c-0.1-3.1-0.4-5.7-0.8-7.8c-0.5-1.8-1.2-3-2-3.6c-0.9-0.6-2.1-1-3.7-1
		c-1.1,0-2.1,0.1-2.9,0.4c-0.8,0.2-1.4,0.6-1.7,1c-0.3,0.4-0.6,0.8-0.7,1.2c-0.2,0.4-0.3,0.8-0.5,1.3v0.2c0.1,5.2,0.1,12,0,20.2
		c-0.1-0.2-0.3-0.4-0.5-0.5c-1.8-0.6-3.3,0-4.6,1.9c-0.8,1.3-2.8,4.4-5.9,9.4c-3.1,5-6,9.4-8.5,13.3c-2.6,3.9-5.6,8.2-9,12.9
		c-3.5,4.7-6.7,8.5-9.9,11.5c-3.1,3-6,4.9-8.5,5.5c-1.3,0-2.3-1.6-3.1-4.8c-0.8-3.2-1.4-7-1.7-11.4c-0.3-4.4-0.6-8-0.7-10.8
		c-0.2-2.8-0.2-4.8-0.2-6.1c0.1-3.4,0.5-8.3,1.1-14.8c0,0,0.1-0.1,0.1-0.1c0.9-0.9,1-2.4,0.4-4.5c0.6-5.7,1.5-12.4,2.5-20
		c0.6-2.1,0.7-4.1,0.1-6.1c-0.6-2-2.1-2.6-4.7-1.8c-4,1.4-7.4,9.5-10.1,24.1c-0.6,3.5-1.1,7-1.5,10.4c-4.3,3.5-9.2,7.2-14.8,11.2
		c-9.9,7-18,10.5-24.3,10.7c-1.8,0-3.5-0.7-5.1-2c-1.6-1.4-2.9-3.4-3.8-6.1c-1-2.7-1.5-5.9-1.7-9.6c-0.2-3.7,0.5-8,2-13
		c1.5-5,3.9-10.1,7.1-15.4c0.6-0.8-0.2-2.6-2.4-5.4c-2.2-2.8-3.8-3.8-4.8-3c-1.3,1-2.9,2.3-4.8,4.1c-4.3-5.4-9.6-8.4-15.9-8.9
		c-11.9-1.3-24.9,5.4-39,20c-12.3,12.8-20.4,25.9-24.3,39.2c-4,13.6-1.3,21.6,8.2,23.8c4.2,1,9.9-0.7,17.1-5.1
		c7.2-4.3,14.3-9.7,21.4-16.2c7.1-6.5,14.3-13.7,21.6-21.8c-0.2,9.8,2,17.7,6.6,23.8c4.6,6.1,11.4,8.9,20.6,8.4
		c9.3-0.5,18.6-4.5,27.8-12.1c2.6-2.2,5.1-4.4,7.4-6.6c-0.1,9.5,0.7,18.2,2.6,26.2c4,16.8,11.9,22,23.8,15.6
		c4.6-2.6,9.9-7.9,15.8-16.1c5.9-8.2,10.9-16.6,15.3-25.1c4.1-8.2,6.9-15,8.4-20.4c-0.2,15.5-0.7,35.6-1.4,60.5
		c0,0.8,1.3,1.2,3.8,1.3c2.6,0.1,3.9-0.4,4.1-1.3c0.2-0.6,0.5-1.7,1-3.1c14.4-52.6,26.9-81.5,37.3-86.8c0.5,1.4,1.3,5.1,2.4,11.1
		c1.1,5.9,2.2,10.6,3.1,14c1.3,4.5,2.7,8.1,4.3,10.8c1.6,2.7,4,4.8,7.2,6.3c3.2,1.4,7.1,1.7,11.5,0.7c4.5-1,8.6-3,12.4-6.3
		C2519.9,735,2521.4,732.3,2520.6,730.2z M2292.1,727.1c-6.7,6.9-12.2,12.4-16.5,16.6c-4.2,4.2-9,8.5-14.3,13
		c-5.3,4.5-9.5,7.5-12.5,8.9c-0.8,0.5-1.3,0.6-1.6,0.2c-0.2-0.3-0.4-1.1-0.4-2.4c0-3.4,0.9-7.1,2.6-11.2c1.8-4.1,4.1-8.1,7-12
		c2.9-3.9,6.1-7.8,9.6-11.7c3.5-3.8,7.3-7.2,11.2-10c3.9-2.8,7.7-5.1,11.3-6.7c3.6-1.7,7-2.5,10.1-2.4c3.1,0.1,5.7,1.2,7.6,3.2
		C2303.5,715.4,2298.8,720.2,2292.1,727.1z"/>
</g>
</svg>
